<svg xmlns="http://www.w3.org/2000/svg" xmlns:xlink="http://www.w3.org/1999/xlink" version="1.1" x="0px" y="0px" viewBox="0 -20 100 125" enable-background="new 0 0 100 100" xml:space="preserve"><path d="M78,51.75c-0.965,0-1.75-0.785-1.75-1.75s0.785-1.75,1.75-1.75s1.75,0.785,1.75,1.75S78.965,51.75,78,51.75z M78,48.75  c-0.689,0-1.25,0.561-1.25,1.25s0.561,1.25,1.25,1.25s1.25-0.561,1.25-1.25S78.689,48.75,78,48.75z"/><path d="M76,54.75c-2.619,0-4.75-2.131-4.75-4.75s2.131-4.75,4.75-4.75s4.75,2.131,4.75,4.75S78.619,54.75,76,54.75z M76,45.75  c-2.344,0-4.25,1.907-4.25,4.25c0,2.344,1.906,4.25,4.25,4.25s4.25-1.906,4.25-4.25C80.25,47.657,78.344,45.75,76,45.75z"/><path d="M74,57.75c-4.273,0-7.75-3.477-7.75-7.75s3.477-7.75,7.75-7.75s7.75,3.477,7.75,7.75S78.273,57.75,74,57.75z M74,42.75  c-3.998,0-7.25,3.252-7.25,7.25c0,3.998,3.252,7.25,7.25,7.25s7.25-3.252,7.25-7.25C81.25,46.002,77.998,42.75,74,42.75z"/><path d="M72,60.75c-5.928,0-10.75-4.822-10.75-10.75S66.072,39.25,72,39.25S82.75,44.072,82.75,50S77.928,60.75,72,60.75z M72,39.75  c-5.652,0-10.25,4.598-10.25,10.25c0,5.652,4.598,10.25,10.25,10.25S82.25,55.652,82.25,50C82.25,44.348,77.652,39.75,72,39.75z"/><path d="M70,63.75c-7.582,0-13.75-6.168-13.75-13.75c0-7.582,6.168-13.75,13.75-13.75S83.75,42.418,83.75,50  C83.75,57.582,77.582,63.75,70,63.75z M70,36.75c-7.306,0-13.25,5.944-13.25,13.25c0,7.306,5.944,13.25,13.25,13.25  S83.25,57.306,83.25,50C83.25,42.694,77.306,36.75,70,36.75z"/><path d="M68,66.75c-9.236,0-16.75-7.514-16.75-16.75c0-9.236,7.514-16.75,16.75-16.75S84.75,40.764,84.75,50  C84.75,59.236,77.236,66.75,68,66.75z M68,33.75c-8.96,0-16.25,7.29-16.25,16.25c0,8.96,7.29,16.25,16.25,16.25  S84.25,58.96,84.25,50C84.25,41.04,76.96,33.75,68,33.75z"/><path d="M66,69.75c-10.891,0-19.75-8.859-19.75-19.75c0-10.89,8.859-19.75,19.75-19.75S85.75,39.11,85.75,50  C85.75,60.891,76.891,69.75,66,69.75z M66,30.75c-10.614,0-19.25,8.636-19.25,19.25S55.386,69.25,66,69.25S85.25,60.614,85.25,50  S76.614,30.75,66,30.75z"/><path d="M64,72.75c-12.544,0-22.75-10.206-22.75-22.75c0-12.544,10.206-22.75,22.75-22.75S86.75,37.456,86.75,50  C86.75,62.544,76.544,72.75,64,72.75z M64,27.75c-12.269,0-22.25,9.981-22.25,22.25S51.731,72.25,64,72.25S86.25,62.269,86.25,50  S76.269,27.75,64,27.75z"/><path d="M62,75.75c-14.199,0-25.75-11.552-25.75-25.75c0-14.199,11.551-25.75,25.75-25.75c14.198,0,25.75,11.551,25.75,25.75  C87.75,64.198,76.198,75.75,62,75.75z M62,24.75c-13.923,0-25.25,11.327-25.25,25.25S48.077,75.25,62,75.25S87.25,63.923,87.25,50  S75.923,24.75,62,24.75z"/><path d="M60,78.75c-15.853,0-28.75-12.897-28.75-28.75c0-15.853,12.897-28.75,28.75-28.75c15.853,0,28.75,12.897,28.75,28.75  C88.75,65.853,75.853,78.75,60,78.75z M60,21.75c-15.577,0-28.25,12.673-28.25,28.25S44.423,78.25,60,78.25S88.25,65.577,88.25,50  S75.577,21.75,60,21.75z"/><path d="M58,81.75c-17.507,0-31.75-14.243-31.75-31.75S40.493,18.25,58,18.25S89.75,32.493,89.75,50S75.507,81.75,58,81.75z   M58,18.75c-17.231,0-31.25,14.019-31.25,31.25S40.769,81.25,58,81.25S89.25,67.231,89.25,50S75.231,18.75,58,18.75z"/><path d="M56,84.75c-19.161,0-34.75-15.589-34.75-34.75S36.839,15.25,56,15.25S90.75,30.839,90.75,50S75.161,84.75,56,84.75z   M56,15.75c-18.886,0-34.25,15.364-34.25,34.25S37.114,84.25,56,84.25S90.25,68.886,90.25,50S74.886,15.75,56,15.75z"/><path d="M54,87.75c-20.815,0-37.75-16.935-37.75-37.75S33.185,12.25,54,12.25S91.75,29.185,91.75,50S74.815,87.75,54,87.75z   M54,12.75c-20.54,0-37.25,16.71-37.25,37.25c0,20.54,16.71,37.25,37.25,37.25c20.54,0,37.25-16.71,37.25-37.25  C91.25,29.46,74.54,12.75,54,12.75z"/><path d="M52,90.75c-22.47,0-40.75-18.28-40.75-40.75S29.53,9.25,52,9.25S92.75,27.53,92.75,50S74.47,90.75,52,90.75z M52,9.75  C29.806,9.75,11.75,27.806,11.75,50c0,22.194,18.056,40.25,40.25,40.25c22.194,0,40.25-18.056,40.25-40.25  C92.25,27.806,74.194,9.75,52,9.75z"/><path d="M50,93.75C25.876,93.75,6.25,74.124,6.25,50S25.876,6.25,50,6.25S93.75,25.876,93.75,50S74.124,93.75,50,93.75z M50,6.75  C26.152,6.75,6.75,26.152,6.75,50c0,23.848,19.402,43.25,43.25,43.25c23.848,0,43.25-19.402,43.25-43.25  C93.25,26.152,73.848,6.75,50,6.75z"/><text x="0" y="115" fill="#000000" font-size="5px" font-weight="bold" font-family="'Helvetica Neue', Helvetica, Arial-Unicode, Arial, Sans-serif">Created by emilegraphics</text><text x="0" y="120" fill="#000000" font-size="5px" font-weight="bold" font-family="'Helvetica Neue', Helvetica, Arial-Unicode, Arial, Sans-serif">from the Noun Project</text></svg>