<svg xmlns="http://www.w3.org/2000/svg" xmlns:xlink="http://www.w3.org/1999/xlink" version="1.1" x="0px" y="0px" viewBox="0 -20 100 125" style="enable-background:new 0 0 100 100;" xml:space="preserve"><path d="M68.7283249,33.0924873c-9.322567,0-16.9075165,7.5849457-16.9075165,16.9075127  c0,9.3225021,7.5849495,16.9075165,16.9075165,16.9075165S85.6358414,59.3225021,85.6358414,50  C85.6358414,40.677433,78.0508881,33.0924873,68.7283249,33.0924873z M70.8092499,64.3063583  c-7.8887558,0-14.3063583-6.4176025-14.3063583-14.3063583c0-7.8888168,6.4176025-14.3063583,14.3063583-14.3063583  c7.8888168,0,14.3063583,6.4175415,14.3063583,14.3063583C85.1156082,57.8887558,78.6980667,64.3063583,70.8092499,64.3063583z"/><path d="M66.6473999,29.9710979c-11.0434837,0-20.028904,8.9854183-20.028904,20.0289021s8.9854202,20.0289001,20.028904,20.0289001  S86.6763,61.0434837,86.6763,50S77.6908798,29.9710979,66.6473999,29.9710979z M68.7283249,67.427742  c-9.6097374,0-17.4277458-7.8180695-17.4277458-17.427742c0-9.6097336,7.8180084-17.4277458,17.4277458-17.4277458  S86.1560669,40.3902664,86.1560669,50C86.1560669,59.6096725,78.3380585,67.427742,68.7283249,67.427742z"/><path d="M62.4855499,23.728323C47.999218,23.728323,36.213871,35.513607,36.213871,50  c0,14.4863281,11.785347,26.2716751,26.2716789,26.2716751c14.4863968,0,26.2716751-11.785347,26.2716751-26.2716751  C88.757225,35.513607,76.9718781,23.728323,62.4855499,23.728323z M64.5664749,73.670517  c-13.0515671,0-23.6705208-10.6189499-23.6705208-23.670517s10.6189537-23.6705208,23.6705208-23.6705208  S88.2369919,36.9484329,88.2369919,50S77.618042,73.670517,64.5664749,73.670517z"/><path d="M64.5664749,26.8497105C51.8010597,26.8497105,41.4161835,37.23452,41.4161835,50  c0,12.7654152,10.3848763,23.1502914,23.1502914,23.1502914S87.7167664,62.7654152,87.7167664,50  C87.7167664,37.23452,77.3318863,26.8497105,64.5664749,26.8497105z M66.6473999,70.5491333  c-11.3316689,0-20.5491333-9.2174644-20.5491333-20.5491333c0-11.3306503,9.2174644-20.5491333,20.5491333-20.5491333  S87.1965332,38.6693497,87.1965332,50C87.1965332,61.3316689,77.9790649,70.5491333,66.6473999,70.5491333z"/><path d="M74.9710999,42.456646c-4.1597519,0-7.5433578,3.3835983-7.5433578,7.543354s3.383606,7.543354,7.5433578,7.543354  S82.5144501,54.1597557,82.5144501,50S79.1308517,42.456646,74.9710999,42.456646z M77.0520248,54.9421959  c-2.7249908,0-4.9421997-2.2172699-4.9421997-4.9421959c0-2.7249908,2.2172089-4.9421959,4.9421997-4.9421959  S81.9942169,47.2750092,81.9942169,50C81.9942169,52.724926,79.7770157,54.9421959,77.0520248,54.9421959z"/><path d="M70.8092499,36.213871c-7.6015892,0-13.786129,6.1844788-13.786129,13.786129  c0,7.6015854,6.1845398,13.786129,13.786129,13.786129c7.6016464,0,13.7861252-6.1845436,13.7861252-13.786129  C84.5953751,42.3983498,78.4108963,36.213871,70.8092499,36.213871z M72.8901749,61.1849709  c-6.1678391,0-11.1849709-5.0171318-11.1849709-11.1849709c0-6.1679039,5.0171318-11.1849709,11.1849709-11.1849709  S84.0751419,43.8320961,84.0751419,50C84.0751419,56.1678391,79.0580139,61.1849709,72.8901749,61.1849709z"/><path d="M77.0520248,45.5780334c-2.4388428,0-4.4219666,1.9841461-4.4219666,4.4219666  c0,2.438839,1.9831238,4.4219666,4.4219666,4.4219666c2.4388351,0,4.4219666-1.9831276,4.4219666-4.4219666  C81.4739914,47.5621796,79.49086,45.5780334,77.0520248,45.5780334z M79.1329498,51.8208084  c-1.0040131,0-1.8208084-0.8167992-1.8208084-1.8208084c0-1.0040741,0.8167953-1.8208084,1.8208084-1.8208084  c1.0040741,0,1.8208084,0.8167343,1.8208084,1.8208084C80.9537582,51.0040092,80.1370239,51.8208084,79.1329498,51.8208084z"/><circle cx="79.1329498" cy="50" r="1.300578"/><path d="M72.8901749,39.3352585c-5.8806686,0-10.6647415,4.784008-10.6647415,10.6647415  c0,5.8806686,4.7840729,10.6647415,10.6647415,10.6647415S83.5549164,55.8806686,83.5549164,50  C83.5549164,44.1192665,78.7708435,39.3352585,72.8901749,39.3352585z M74.9710999,58.0635834  c-4.4459076,0-8.0635834-3.6176758-8.0635834-8.0635834s3.6176758-8.0635834,8.0635834-8.0635834  S83.0346832,45.5540924,83.0346832,50S79.4170074,58.0635834,74.9710999,58.0635834z"/><path d="M60.4046249,20.6069355c-16.2073097,0-29.3930645,13.1857548-29.3930645,29.3930645  c0,16.2072449,13.1857548,29.3930664,29.3930645,29.3930664S89.7976913,66.2072449,89.7976913,50  C89.7976913,33.7926903,76.6119385,20.6069355,60.4046249,20.6069355z M62.4855499,76.7919083  c-14.7734985,0-26.7919083-12.0194244-26.7919083-26.7919083c0-14.7735634,12.0184097-26.7919083,26.7919083-26.7919083  c14.7724838,0,26.7919083,12.0183449,26.7919083,26.7919083C89.2774582,64.7724838,77.2580338,76.7919083,62.4855499,76.7919083z"/><path d="M56.242775,14.3641615C36.592617,14.3641615,20.6069355,30.3498402,20.6069355,50  S36.592617,85.6358414,56.242775,85.6358414S91.8786163,69.6501617,91.8786163,50S75.8929367,14.3641615,56.242775,14.3641615z   M58.3237,83.0346832c-18.2153969,0-33.0346832-14.8192902-33.0346832-33.0346832S40.1083031,16.9653187,58.3237,16.9653187  S91.3583832,31.784605,91.3583832,50S76.539093,83.0346832,58.3237,83.0346832z"/><path d="M58.3237,17.4855499C40.3954735,17.4855499,25.809248,32.0717735,25.809248,50S40.3954735,82.5144501,58.3237,82.5144501  S90.83815,67.9282303,90.83815,50S76.2519226,17.4855499,58.3237,17.4855499z M60.4046249,79.9132919  c-16.4944801,0-29.9132957-13.4188766-29.9132957-29.9132919c0-16.4944801,13.4188156-29.9132957,29.9132957-29.9132957  S90.3179169,33.5055199,90.3179169,50C90.3179169,66.4944153,76.8991013,79.9132919,60.4046249,79.9132919z"/><path d="M50,5C25.1870289,5,5,25.1870289,5,50c0,24.8129044,20.1870289,45,45,45s45-20.1870956,45-45  C95,25.1870289,74.812973,5,50,5z M52.080925,92.3988419C28.7017651,92.3988419,9.6820812,73.379158,9.6820812,50  c0-23.3792229,19.0196838-42.3988419,42.3988419-42.3988419c23.3792267,0,42.3988419,19.0196209,42.3988419,42.3988419  C94.4797668,73.379158,75.4601517,92.3988419,52.080925,92.3988419z"/><path d="M52.080925,8.1213875C28.9889336,8.1213875,10.2023125,26.9079456,10.2023125,50  c0,23.0919952,18.7866211,41.8786163,41.8786125,41.8786163c23.0920563,0,41.8786163-18.7866211,41.8786163-41.8786163  C93.9595413,26.9079456,75.1729813,8.1213875,52.080925,8.1213875z M54.16185,89.2774582  c-21.6572266,0-39.2774582-17.6202316-39.2774582-39.2774582S32.5046234,10.7225437,54.16185,10.7225437  S93.4393082,28.3427715,93.4393082,50S75.8190765,89.2774582,54.16185,89.2774582z"/><path d="M54.16185,11.242775c-21.3710747,0-38.757225,17.3860855-38.757225,38.757225  c0,21.3710785,17.3861504,38.757225,38.757225,38.757225S92.919075,71.3710785,92.919075,50  C92.919075,28.6288605,75.5329285,11.242775,54.16185,11.242775z M56.242775,86.1560669  c-19.9363136,0-36.1560707-16.2197571-36.1560707-36.1560669S36.3064613,13.8439302,56.242775,13.8439302  S92.3988419,30.0636883,92.3988419,50S76.1790848,86.1560669,56.242775,86.1560669z"/><text x="0" y="115" fill="#000000" font-size="5px" font-weight="bold" font-family="'Helvetica Neue', Helvetica, Arial-Unicode, Arial, Sans-serif">Created by emilegraphics</text><text x="0" y="120" fill="#000000" font-size="5px" font-weight="bold" font-family="'Helvetica Neue', Helvetica, Arial-Unicode, Arial, Sans-serif">from the Noun Project</text></svg>