<svg xmlns="http://www.w3.org/2000/svg" xmlns:xlink="http://www.w3.org/1999/xlink" version="1.1" x="0px" y="0px" viewBox="0 -11 100 125" style="enable-background:new 0 0 100 100;" xml:space="preserve"><g><g><path d="M51.7,55c-0.7-2-1.3-4-2-6.4h-0.3c-0.4,2-1.2,4.2-1.9,6.2l-6,17.1h-5.6l10.7-27.3c0.2-0.7,0.4-1.1,0.4-1.4    c0-0.4-0.1-0.9-0.4-1.6c-1.9-5.2-4.1-9.3-7.7-9.3c-0.3,0-0.7,0-1,0.1l0.4-4.2c0.5-0.2,1.3-0.2,2.1-0.2c5.8,0,8.5,5.6,11.7,14    l11.3,30h-5.7L51.7,55z"/></g></g><g><path d="M81.1,93.9H18.2c-6.9,0-12.5-5.6-12.5-12.5V18.5C5.7,11.6,11.3,6,18.2,6h62.9c6.9,0,12.5,5.6,12.5,12.5v62.9   C93.6,88.3,88,93.9,81.1,93.9z M18.2,7C11.9,7,6.7,12.2,6.7,18.5v62.9c0,6.3,5.2,11.5,11.5,11.5h62.9c6.3,0,11.5-5.2,11.5-11.5   V18.5C92.6,12.2,87.5,7,81.1,7H18.2z"/></g><text x="0" y="115" fill="#000000" font-size="5px" font-weight="bold" font-family="'Helvetica Neue', Helvetica, Arial-Unicode, Arial, Sans-serif">Created by Burak Kucukparmaksiz</text><text x="0" y="120" fill="#000000" font-size="5px" font-weight="bold" font-family="'Helvetica Neue', Helvetica, Arial-Unicode, Arial, Sans-serif">from the Noun Project</text></svg>