<svg xmlns="http://www.w3.org/2000/svg" xmlns:xlink="http://www.w3.org/1999/xlink" version="1.1" x="0px" y="0px" viewBox="7 -3 38 60" style="enable-background:new 0 0 48 48;" xml:space="preserve"><style type="text/css">
	.st0{display:none;}
</style><g><g><path d="M30.4,13.7c-0.1-0.5-0.7-0.9-1.2-0.7c-0.5,0.1-0.8,0.7-0.7,1.2l6,22c0.1,0.4,0.5,0.7,1,0.7c0.1,0,0.2,0,0.3,0    c0.5-0.1,0.8-0.7,0.7-1.2L30.4,13.7z"/><path d="M24.4,36V12c0-0.6-0.4-1-1-1s-1,0.4-1,1v24c0,0.6,0.4,1,1,1S24.4,36.6,24.4,36z"/><path d="M15.4,36V12c0-0.6-0.4-1-1-1s-1,0.4-1,1v24c0,0.6,0.4,1,1,1S15.4,36.6,15.4,36z"/></g></g><text x="0" y="63" fill="#000000" font-size="5px" font-weight="bold" font-family="'Helvetica Neue', Helvetica, Arial-Unicode, Arial, Sans-serif">Created by tezar tantular</text><text x="0" y="68" fill="#000000" font-size="5px" font-weight="bold" font-family="'Helvetica Neue', Helvetica, Arial-Unicode, Arial, Sans-serif">from the Noun Project</text></svg>