<svg xmlns="http://www.w3.org/2000/svg" xmlns:xlink="http://www.w3.org/1999/xlink" xml:space="preserve" version="1.1" style="shape-rendering:geometricPrecision;text-rendering:geometricPrecision;image-rendering:optimizeQuality;" viewBox="0 -150 607 758.75" x="0px" y="0px" fill-rule="evenodd" clip-rule="evenodd"><defs><style type="text/css">
   
    .fil0 {fill:black}
   
  </style></defs><g><path class="fil0" d="M245 168c6,0 12,6 12,13l0 245c0,7 -6,12 -12,12 -7,0 -13,-5 -13,-12l0 -245c0,-7 6,-13 13,-13z"/><path class="fil0" d="M362 168c7,0 13,6 13,13l0 245c0,7 -6,12 -13,12 -7,0 -12,-5 -12,-12l0 -245c0,-7 5,-13 12,-13z"/><path class="fil0" d="M303 0c168,0 304,136 304,303 0,168 -136,304 -304,304 -167,0 -303,-136 -303,-304 0,-167 136,-303 303,-303zm0 22c156,0 282,126 282,281 0,156 -126,282 -282,282 -155,0 -281,-126 -281,-282 0,-155 126,-281 281,-281z"/></g><text x="0" y="622" fill="#000000" font-size="5px" font-weight="bold" font-family="'Helvetica Neue', Helvetica, Arial-Unicode, Arial, Sans-serif">Created by uzeir syarief</text><text x="0" y="627" fill="#000000" font-size="5px" font-weight="bold" font-family="'Helvetica Neue', Helvetica, Arial-Unicode, Arial, Sans-serif">from the Noun Project</text></svg>