<svg xmlns="http://www.w3.org/2000/svg" xmlns:xlink="http://www.w3.org/1999/xlink" version="1.1" x="0px" y="0px" viewBox="0 -15 100 125" enable-background="new 0 0 100 100" xml:space="preserve"><path d="M53.073,20.337c-0.679-0.339-1.491-0.263-2.096,0.194L28.64,37.388H16.161c-1.938,0-3.515,1.578-3.515,3.517v18.193  c0,1.938,1.577,3.516,3.515,3.516H28.64L50.978,79.47c0.354,0.267,0.777,0.403,1.205,0.403c0.304,0,0.608-0.069,0.891-0.21  c0.68-0.338,1.108-1.031,1.108-1.79V22.127C54.182,21.369,53.753,20.675,53.073,20.337z M50.182,73.858L30.514,59.017  c-0.347-0.262-0.77-0.403-1.205-0.403H16.646V41.388H29.31c0.435,0,0.858-0.142,1.205-0.404l19.667-14.842V73.858z M62.383,37.353  c-0.781-0.78-2.047-0.781-2.828,0s-0.781,2.047,0,2.829c2.623,2.622,4.067,6.109,4.067,9.818s-1.444,7.195-4.067,9.818  c-0.781,0.78-0.781,2.047,0,2.828c0.391,0.391,0.902,0.586,1.414,0.586s1.023-0.195,1.414-0.586  c3.379-3.378,5.239-7.869,5.239-12.646S65.762,40.731,62.383,37.353z M69.276,30.46c-0.78-0.781-2.048-0.781-2.828,0  c-0.781,0.781-0.781,2.047,0,2.828c4.465,4.464,6.923,10.4,6.923,16.712c0,6.313-2.458,12.248-6.923,16.711  c-0.781,0.78-0.781,2.047,0,2.828c0.391,0.391,0.902,0.586,1.414,0.586s1.023-0.195,1.414-0.586  c5.22-5.219,8.095-12.158,8.095-19.54C77.371,42.62,74.497,35.68,69.276,30.46z M76.348,23.388c-0.78-0.781-2.048-0.781-2.828,0  c-0.781,0.781-0.781,2.047,0,2.828c13.114,13.114,13.114,34.453,0,47.568c-0.781,0.781-0.781,2.047,0,2.828  c0.391,0.391,0.902,0.586,1.414,0.586s1.024-0.195,1.414-0.586C91.021,61.938,91.021,38.061,76.348,23.388z"/><text x="0" y="115" fill="#000000" font-size="5px" font-weight="bold" font-family="'Helvetica Neue', Helvetica, Arial-Unicode, Arial, Sans-serif">Created by Chunk Icons</text><text x="0" y="120" fill="#000000" font-size="5px" font-weight="bold" font-family="'Helvetica Neue', Helvetica, Arial-Unicode, Arial, Sans-serif">from the Noun Project</text></svg>